<svg xmlns="http://www.w3.org/2000/svg" width="50" height="135" viewBox="0 0 50 135" version="1.1">
  <defs>
    <style>
      svg {
        filter: drop-shadow(1px 2px 2px black);
      }
      
      .cls-yellow {
        fill: #b7a54e;
        filter: drop-shadow(0 1px 1px #a7953e);
      }

      .cls-pink {
        fill: #dda09f;
      }

      .cls-purple {
        fill: #54538c;
      }

      .cls-white {
        fill: #fff;
      }

      .cls-black {
        fill: #231f20;
      }

      .cls-brown {
        fill: #604118;
      }

      .cls-blue {
        fill: #534f83;
      }

      .cls-light-red {
        fill: #9b7878;
      }

      .cls-light-purple {
        fill: #675ca8;
      }

      .cls-light-pink {
        fill: #f8b3af;
      }
    </style>
  </defs>
  <g>
    <ellipse class="cls-purple" cx="17.55" cy="118.77" rx="5.63" ry="13.43"/>
    <ellipse class="cls-purple" cx="34.33" cy="118.77" rx="5.63" ry="13.43"/>
    <ellipse class="cls-blue" cx="17.64" cy="102.49" rx="5.63" ry="13.43"/>
    <ellipse class="cls-blue" cx="34.3" cy="103.85" rx="5.63" ry="13.43"/>
    <ellipse class="cls-light-pink" cx="45.55" cy="67.11" rx="2.49" ry="16.4" transform="translate(-8.35 6.5) rotate(-7.48)"/>
    <ellipse class="cls-light-pink" cx="4.73" cy="67.84" rx="16.4" ry="2.5" transform="translate(-63.12 63.22) rotate(-82.11)"/>
    <ellipse class="cls-light-purple" cx="25.56" cy="50.85" rx="20.82" ry="11.56"/>
    <ellipse class="cls-pink" cx="38.05" cy="22.35" rx="5.29" ry="4.77"/>
    <ellipse class="cls-pink" cx="11.94" cy="22.35" rx="5.29" ry="4.77"/>
    <ellipse class="cls-light-pink" cx="25.34" cy="22.24" rx="15.3" ry="22.24"/>
    <ellipse class="cls-yellow" cx="25.34" cy="12.03" rx="15" ry="12"/>
    <ellipse class="cls-yellow" cx="25.34" cy="19.03" rx="15" ry="5.93"/>
    <ellipse class="cls-light-purple" cx="25" cy="73.42" rx="14.97" ry="22.58"/>
    <ellipse class="cls-light-purple" cx="25.94" cy="87.88" rx="14.7" ry="8.25"/>
    <ellipse class="cls-brown" cx="17.59" cy="132.66" rx="4.41" ry="1.87"/>
    <ellipse class="cls-brown" cx="34.3" cy="132.66" rx="4.41" ry="1.87"/>
  </g>
</svg>
