<svg xmlns="http://www.w3.org/2000/svg" version="1.1" viewBox="0 0 50 135">
  <defs>
    <style>
      svg {
        filter: drop-shadow(1px 2px 2px black);
      }
      
      .cls-yellow {
        fill: #b7a54e;
        filter: drop-shadow(0 1px 1px #a7953e);
      }

      .cls-pink {
        fill: #dda09f;
      }

      .cls-purple {
        fill: #54538c;
      }

      .cls-white {
        fill: #fff;
      }

      .cls-black {
        fill: #231f20;
      }

      .cls-brown {
        fill: #604118;
      }

      .cls-blue {
        fill: #534f83;
      }

      .cls-light-red {
        fill: #9b7878;
      }

      .cls-light-purple {
        fill: #675ca8;
      }

      .cls-light-pink {
        fill: #f8b3af;
      }
    </style>
  </defs>
  <g>
    <ellipse class="cls-blue" cx="19.5" cy="100.74" rx="5" ry="13.43"/>
    <ellipse class="cls-blue" cx="33.95" cy="102.49" rx="5.01" ry="13.43"/>
    <ellipse class="cls-light-pink" cx="6.76" cy="75.18" rx="16.4" ry="2.5" transform="translate(-58.73 62.93) rotate(-82.11)"/>
    <ellipse class="cls-light-purple" cx="27.64" cy="50.25" rx="12.57" ry="11.56"/>
    <ellipse class="cls-pink" cx="27.79" cy="42.64" rx="5.29" ry="6.84"/>
    <ellipse class="cls-light-pink" cx="27.79" cy="22.24" rx="15.3" ry="22.24"/>
    <ellipse class="cls-white" cx="17.11" cy="21.32" rx="1.88" ry="2"/>
    <ellipse class="cls-black" cx="16.58" cy="21.46" rx=".82" ry=".89"/>
    <ellipse class="cls-black" cx="15.82" cy="32.72" rx="1.38" ry="1.12"/>
    <ellipse class="cls-yellow" cx="27.79" cy="9.03" rx="11.97" ry="5.93"/>
    <ellipse class="cls-yellow" cx="28.12" cy="5.63" rx="11.09" ry="5.63"/>
    <ellipse class="cls-light-red" cx="13.49" cy="26.95" rx=".69" ry=".74"/>
    <circle class="cls-pink" cx="12.35" cy="24.6" r="2.35"/>
    <ellipse class="cls-yellow" cx="14.13" cy="17.51" rx="2.1" ry=".37"/>
    <ellipse class="cls-light-purple" cx="27.3" cy="72.83" rx="9.04" ry="22.58"/>
    <ellipse class="cls-light-purple" cx="27.87" cy="87.28" rx="8.87" ry="8.25"/>
    <ellipse class="cls-brown" cx="32.41" cy="130.08" rx="4.41" ry="1.87"/>
    <ellipse class="cls-brown" cx="17.17" cy="130.74" rx="4.41" ry="1.87"/>
    <ellipse class="cls-pink" cx="14.5" cy="81.42" rx="2.37" ry="1.84"/>
    <ellipse class="cls-pink" cx="38.99" cy="77.98" rx="2.37" ry="1.84"/>
    <ellipse class="cls-purple" cx="19.42" cy="117.02" rx="5" ry="13.43"/>
    <ellipse class="cls-purple" cx="33.99" cy="117.41" rx="5.01" ry="13.43"/>
    <ellipse class="cls-pink" cx="28.98" cy="25.38" rx="3.33" ry="4.77"/>
    <ellipse class="cls-light-pink" cx="38.7" cy="64.81" rx="2.23" ry="14.69" transform="translate(-8.19 4.29) rotate(-7.48)"/>
    <ellipse class="cls-yellow" cx="38.2" cy="15.83" rx="5.12" ry="8.96"/>
  </g>
</svg>
