<svg xmlns="http://www.w3.org/2000/svg" viewBox="0 0 50 135" version="1.1">
  <defs>
    <style>
      svg {
        filter: drop-shadow(1px 2px 2px black);
      }
      
      .cls-yellow {
        fill: #b7a54e;
        filter: drop-shadow(0 1px 1px #a7953e);
      }

      .cls-pink {
        fill: #dda09f;
      }

      .cls-purple {
        fill: #54538c;
      }

      .cls-white {
        fill: #fff;
      }

      .cls-black {
        fill: #231f20;
      }

      .cls-brown {
        fill: #604118;
      }

      .cls-blue {
        fill: #534f83;
      }

      .cls-light-red {
        fill: #9b7878;
      }

      .cls-light-purple {
        fill: #675ca8;
      }

      .cls-light-pink {
        fill: #f8b3af;
      }
    </style>
  </defs>
  <g>
    <ellipse class="cls-blue" cx="17.64" cy="102.49" rx="5.63" ry="13.43"/>
    <ellipse class="cls-blue" cx="34.3" cy="103.85" rx="5.63" ry="13.43"/>
    <ellipse class="cls-light-pink" cx="45.55" cy="64.11" rx="2.49" ry="16.4" transform="translate(-8.35 6.5) rotate(-7.48)"/>
    <ellipse class="cls-light-pink" cx="4.73" cy="67.84" rx="16.4" ry="2.5" transform="translate(-63.12 63.22) rotate(-82.11)"/>
    <ellipse class="cls-light-purple" cx="25.56" cy="50.85" rx="20.82" ry="11.56"/>
    <ellipse class="cls-pink" cx="25.34" cy="42.64" rx="5.29" ry="6.84"/>
    <ellipse class="cls-pink" cx="38.05" cy="22.35" rx="5.29" ry="4.77"/>
    <ellipse class="cls-pink" cx="11.94" cy="22.35" rx="5.29" ry="4.77"/>
    <ellipse class="cls-light-pink" cx="25.34" cy="22.24" rx="15.3" ry="22.24"/>
    <ellipse class="cls-white" cx="18.33" cy="21.32" rx="2.78" ry="2"/>
    <ellipse class="cls-black" cx="18.33" cy="21.32" rx=".69" ry=".74"/>
    <ellipse class="cls-white" cx="31.68" cy="21.32" rx="2.78" ry="2"/>
    <ellipse class="cls-black" cx="31.68" cy="21.32" rx=".69" ry=".74"/>
    <ellipse class="cls-black" cx="25.87" cy="35.79" rx="4.76" ry="0.7"/>
    <ellipse class="cls-white" cx="25.87" cy="35.23" rx="4.03" ry=".56"/>
    <ellipse class="cls-yellow" cx="25.34" cy="9.03" rx="11.97" ry="5.93"/>
    <ellipse class="cls-yellow" cx="25.67" cy="5.63" rx="11.09" ry="5.63"/>
    <ellipse class="cls-light-red" cx="24.1" cy="27.12" rx=".69" ry=".74"/>
    <ellipse class="cls-light-red" cx="25.87" cy="27.12" rx=".69" ry=".74"/>
    <ellipse class="cls-pink" cx="25.01" cy="25.38" rx="1.8" ry="2.32"/>
    <ellipse class="cls-yellow" cx="32.37" cy="18.33" rx="4.2" ry=".75"/>
    <ellipse class="cls-yellow" cx="18.33" cy="17.58" rx="4.2" ry=".75"/>
    <ellipse class="cls-light-purple" cx="25" cy="73.42" rx="14.97" ry="22.58"/>
    <ellipse class="cls-light-purple" cx="25.94" cy="87.88" rx="14.7" ry="8.25"/>
    <ellipse class="cls-brown" cx="17.59" cy="130.66" rx="4.41" ry="1.87"/>
    <ellipse class="cls-brown" cx="34.30" cy="132.66" rx="4.41" ry="1.87"/>
    <ellipse class="cls-pink" cx="2.37" cy="82.88" rx="2.37" ry="1.84"/>
    <ellipse class="cls-pink" cx="47.63" cy="79.88" rx="2.37" ry="1.84"/>
    <ellipse class="cls-purple" cx="17.55" cy="118.77" rx="5.63" ry="10.43"/>
    <ellipse class="cls-purple" cx="34.33" cy="118.77" rx="5.63" ry="13.43"/>
  </g>
</svg>
